<svg xmlns="http://www.w3.org/2000/svg" width="788" height="1098" viewBox="-10 -64 788 1098" font-family="Helvetica,Arial,sans-serif">
<defs><pattern id="hatch" width="8" height="8" patternUnits="userSpaceOnUse" patternTransform="rotate(45)"><rect width="8" height="8" fill="#f6d5d5"/><line x1="0" y1="0" x2="0" y2="8" stroke="#d98c8c" stroke-width="3"/></pattern><clipPath id="scr"><rect x="0" y="0" width="768" height="1024"/></clipPath></defs>
<rect x="-10" y="-64" width="788" height="1098" fill="#ffffff"/>
<text x="0" y="-48" font-size="14" font-weight="bold" fill="#222">v2 (guarded twin banks) · 768x1024 · touch</text>
<text x="0" y="-31" font-size="11" fill="#444">map 760.0×262.5 dp (25.4%), text cells 63.3×13.8 of 80×21 · void 4.0% (hatched) · smallest pad 58.0 dp, other 44.0 dp</text>
<text x="0" y="-15" font-size="10" fill="#666">blue = left thumb, orange = right (darker = pad) · red outline = flagged · dashed purple = pop-up · dashed grey = case decor · arcs 15 / 60 / 75 mm from each thumb corner</text>
<rect x="0" y="0" width="768" height="1024" fill="#fafafa" stroke="#222" stroke-width="1.5"/>
<rect x="0" y="0" width="768" height="4" fill="url(#hatch)" opacity="0.8"/>
<rect x="0" y="4" width="4" height="86.57" fill="url(#hatch)" opacity="0.8"/>
<rect x="764" y="4" width="4" height="86.57" fill="url(#hatch)" opacity="0.8"/>
<rect x="0" y="90.57" width="768" height="2" fill="url(#hatch)" opacity="0.8"/>
<rect x="0" y="92.57" width="4" height="48" fill="url(#hatch)" opacity="0.8"/>
<rect x="764" y="92.57" width="4" height="48" fill="url(#hatch)" opacity="0.8"/>
<rect x="0" y="140.57" width="768" height="2" fill="url(#hatch)" opacity="0.8"/>
<rect x="0" y="142.57" width="4" height="262.5" fill="url(#hatch)" opacity="0.8"/>
<rect x="764" y="142.57" width="4" height="262.5" fill="url(#hatch)" opacity="0.8"/>
<rect x="0" y="405.07" width="768" height="4" fill="url(#hatch)" opacity="0.8"/>
<rect x="0" y="409.07" width="4" height="234.93" fill="url(#hatch)" opacity="0.8"/>
<rect x="764" y="409.07" width="4" height="234.93" fill="url(#hatch)" opacity="0.8"/>
<rect x="220" y="644" width="328" height="12" fill="url(#hatch)" opacity="0.8"/>
<rect x="0" y="644" width="6" height="374" fill="url(#hatch)" opacity="0.8"/>
<rect x="762" y="644" width="6" height="374" fill="url(#hatch)" opacity="0.8"/>
<rect x="220" y="1006" width="328" height="12" fill="url(#hatch)" opacity="0.8"/>
<rect x="0" y="1018" width="768" height="6" fill="url(#hatch)" opacity="0.8"/>
<rect x="6" y="644" width="214" height="374" fill="none" stroke="#b9b9b9" stroke-dasharray="3 3"><title>left bank well + guard halo (12 dp: snaps within 8 dp, swallows beyond) (decor)</title></rect>
<rect x="548" y="644" width="214" height="374" fill="none" stroke="#b9b9b9" stroke-dasharray="3 3"><title>right bank well + guard halo (12 dp: snaps within 8 dp, swallows beyond) (decor)</title></rect>
<rect x="4" y="409.07" width="760" height="234.93" fill="#e8dcc4" stroke="#b39b6b"><title>panel: message log (history, newest last) (chrome)</title></rect>
<rect x="220" y="656" width="328" height="350" fill="#e8dcc4" stroke="#b39b6b"><title>panel: inventory (a copy of the INVENTORY list; the key stays in its bank) (chrome)</title></rect>
<rect x="4" y="142.57" width="760" height="262.5" fill="#d8efd9" stroke="#3f8f46"/>
<text x="384" y="273.82" font-size="16" fill="#2e6b33" text-anchor="middle">map area 760.0×262.5 dp · 25.4%</text>
<rect x="4" y="4" width="760" height="86.57" fill="#dce8f7" stroke="#6c8ebf" opacity="0.9"/>
<text x="8" y="16" font-size="10" fill="#3d5f8f">messages (3 rows; MORE lamp at the right end)</text>
<rect x="4" y="92.57" width="760" height="48" fill="#dce8f7" stroke="#6c8ebf" opacity="0.9"/>
<text x="8" y="104.57" font-size="10" fill="#3d5f8f">status (3 lines)</text>
<rect x="2" y="2" width="764" height="644" fill="none" stroke="#1f3f7a" stroke-width="1.5"/>
<g clip-path="url(#scr)" opacity="0.55">
<line x1="384" y1="0" x2="384" y2="1024" stroke="#777" stroke-dasharray="6 4" stroke-width="0.8"/>
<path d="M 94.48818897637796 1024 A 94.48818897637796 94.48818897637796 0 0 0 0 929.511811023622" fill="none" stroke="#e59866" stroke-width="1"/>
<path d="M 673.511811023622 1024 A 94.48818897637796 94.48818897637796 0 0 1 768 929.511811023622" fill="none" stroke="#e59866" stroke-width="1"/>
<path d="M 377.9527559055118 1024 A 377.9527559055118 377.9527559055118 0 0 0 0 646.0472440944882" fill="none" stroke="#58a55c" stroke-width="1"/>
<path d="M 390.0472440944882 1024 A 377.9527559055118 377.9527559055118 0 0 1 768 646.0472440944882" fill="none" stroke="#58a55c" stroke-width="1"/>
<path d="M 472.4409448818898 1024 A 472.4409448818898 472.4409448818898 0 0 0 0 551.5590551181102" fill="none" stroke="#58a55c" stroke-width="1" stroke-dasharray="5 4"/>
<path d="M 295.5590551181102 1024 A 472.4409448818898 472.4409448818898 0 0 1 768 551.5590551181102" fill="none" stroke="#58a55c" stroke-width="1" stroke-dasharray="5 4"/>
</g>
<rect x="18" y="948" width="58" height="58" rx="3" fill="#a9cbee" fill-opacity="0.85" stroke="#555" stroke-width="0.8"><title>pad_b: ↙ b · 58×58 dp · thumb L (spec) · pad</title></rect>
<text x="47" y="980.85" font-size="11" fill="#1c1c1c" text-anchor="middle">pad ↙ b</text>
<text x="47" y="1003" font-size="7" fill="#555" text-anchor="middle">58×58</text>
<rect x="84" y="948" width="58" height="58" rx="3" fill="#a9cbee" fill-opacity="0.85" stroke="#555" stroke-width="0.8"><title>pad_j: ↓ j · 58×58 dp · thumb L (spec) · pad</title></rect>
<text x="113" y="980.85" font-size="11" fill="#1c1c1c" text-anchor="middle">pad ↓ j</text>
<text x="113" y="1003" font-size="7" fill="#555" text-anchor="middle">58×58</text>
<rect x="150" y="948" width="58" height="58" rx="3" fill="#a9cbee" fill-opacity="0.85" stroke="#555" stroke-width="0.8"><title>pad_n: ↘ n · 58×58 dp · thumb L (spec) · pad</title></rect>
<text x="179" y="980.85" font-size="11" fill="#1c1c1c" text-anchor="middle">pad ↘ n</text>
<text x="179" y="1003" font-size="7" fill="#555" text-anchor="middle">58×58</text>
<rect x="18" y="882" width="58" height="58" rx="3" fill="#a9cbee" fill-opacity="0.85" stroke="#555" stroke-width="0.8"><title>pad_h: ← h · 58×58 dp · thumb L (spec) · pad</title></rect>
<text x="47" y="914.85" font-size="11" fill="#1c1c1c" text-anchor="middle">pad ← h</text>
<text x="47" y="937" font-size="7" fill="#555" text-anchor="middle">58×58</text>
<rect x="84" y="882" width="58" height="58" rx="3" fill="#a9cbee" fill-opacity="0.85" stroke="#555" stroke-width="0.8"><title>pad_centre: centre: REST 1 / PICK UP (hold and slide: the HERE layer) · 58×58 dp · thumb L (spec) · pad</title></rect>
<text x="113" y="913.8636363636364" font-size="8.18" fill="#1c1c1c" text-anchor="middle">pad centre</text>
<text x="113" y="937" font-size="7" fill="#555" text-anchor="middle">58×58</text>
<rect x="150" y="882" width="58" height="58" rx="3" fill="#a9cbee" fill-opacity="0.85" stroke="#555" stroke-width="0.8"><title>pad_l: → l · 58×58 dp · thumb L (spec) · pad</title></rect>
<text x="179" y="914.85" font-size="11" fill="#1c1c1c" text-anchor="middle">pad → l</text>
<text x="179" y="937" font-size="7" fill="#555" text-anchor="middle">58×58</text>
<rect x="18" y="816" width="58" height="58" rx="3" fill="#a9cbee" fill-opacity="0.85" stroke="#555" stroke-width="0.8"><title>pad_y: ↖ y · 58×58 dp · thumb L (spec) · pad</title></rect>
<text x="47" y="848.85" font-size="11" fill="#1c1c1c" text-anchor="middle">pad ↖ y</text>
<text x="47" y="871" font-size="7" fill="#555" text-anchor="middle">58×58</text>
<rect x="84" y="816" width="58" height="58" rx="3" fill="#a9cbee" fill-opacity="0.85" stroke="#555" stroke-width="0.8"><title>pad_k: ↑ k · 58×58 dp · thumb L (spec) · pad</title></rect>
<text x="113" y="848.85" font-size="11" fill="#1c1c1c" text-anchor="middle">pad ↑ k</text>
<text x="113" y="871" font-size="7" fill="#555" text-anchor="middle">58×58</text>
<rect x="150" y="816" width="58" height="58" rx="3" fill="#a9cbee" fill-opacity="0.85" stroke="#555" stroke-width="0.8"><title>pad_u: ↗ u · 58×58 dp · thumb L (spec) · pad</title></rect>
<text x="179" y="848.85" font-size="11" fill="#1c1c1c" text-anchor="middle">pad ↗ u</text>
<text x="179" y="871" font-size="7" fill="#555" text-anchor="middle">58×58</text>
<rect x="18" y="760" width="58" height="48" rx="3" fill="#cfe2f7" fill-opacity="0.85" stroke="#555" stroke-width="0.8"><title>msgs: MSGS ^P · 58×48 dp · thumb L (spec) · chrome-key</title></rect>
<text x="47" y="787.85" font-size="11" fill="#1c1c1c" text-anchor="middle">MSGS</text>
<text x="47" y="805" font-size="7" fill="#555" text-anchor="middle">58×48</text>
<rect x="84" y="760" width="58" height="48" rx="3" fill="#cfe2f7" fill-opacity="0.85" stroke="#555" stroke-width="0.8"><title>drop: DROP (hub) · 58×48 dp · thumb L (spec) · hub</title></rect>
<text x="113" y="787.85" font-size="11" fill="#1c1c1c" text-anchor="middle">DROP</text>
<text x="113" y="805" font-size="7" fill="#555" text-anchor="middle">58×48</text>
<rect x="150" y="760" width="58" height="48" rx="3" fill="#cfe2f7" fill-opacity="0.85" stroke="#555" stroke-width="0.8"><title>pin1: PIN 1 (empty by default: a tap opens the picker) · 58×48 dp · thumb L (spec) · key</title></rect>
<text x="179" y="787.85" font-size="11" fill="#1c1c1c" text-anchor="middle">pin 1</text>
<text x="179" y="805" font-size="7" fill="#555" text-anchor="middle">58×48</text>
<rect x="18" y="706" width="58" height="48" rx="3" fill="#cfe2f7" fill-opacity="0.85" stroke="#555" stroke-width="0.8"><title>game: GAME drawer · 58×48 dp · thumb L (spec) · chrome-key</title></rect>
<text x="47" y="733.85" font-size="11" fill="#1c1c1c" text-anchor="middle">GAME</text>
<text x="47" y="751" font-size="7" fill="#555" text-anchor="middle">58×48</text>
<rect x="84" y="706" width="58" height="48" rx="3" fill="#cfe2f7" fill-opacity="0.85" stroke="#555" stroke-width="0.8"><title>m1: M1 macro · 58×48 dp · thumb L (spec) · key</title></rect>
<text x="113" y="733.85" font-size="11" fill="#1c1c1c" text-anchor="middle">M1</text>
<text x="113" y="751" font-size="7" fill="#555" text-anchor="middle">58×48</text>
<rect x="150" y="706" width="58" height="48" rx="3" fill="#cfe2f7" fill-opacity="0.85" stroke="#555" stroke-width="0.8"><title>menu: MENU (settings) · 58×48 dp · thumb L (spec) · chrome-key</title></rect>
<text x="179" y="733.85" font-size="11" fill="#1c1c1c" text-anchor="middle">MENU</text>
<text x="179" y="751" font-size="7" fill="#555" text-anchor="middle">58×48</text>
<rect x="18" y="656" width="58" height="44" rx="3" fill="#cfe2f7" fill-opacity="0.85" stroke="#555" stroke-width="0.8"><title>rest: REST ×n (hold: count layer on the pad; swipe up: LONG REST) · 58×44 dp · thumb L (spec) · key</title></rect>
<text x="47" y="679.9090909090909" font-size="5.45" fill="#1c1c1c" text-anchor="middle">REST +Long rest</text>
<text x="47" y="697" font-size="7" fill="#555" text-anchor="middle">58×44</text>
<rect x="84" y="656" width="58" height="44" rx="3" fill="#cfe2f7" fill-opacity="0.85" stroke="#555" stroke-width="0.8"><title>world: WORLD drawer · 58×44 dp · thumb L (spec) · chrome-key</title></rect>
<text x="113" y="681.85" font-size="11" fill="#1c1c1c" text-anchor="middle">WORLD</text>
<text x="113" y="697" font-size="7" fill="#555" text-anchor="middle">58×44</text>
<rect x="150" y="656" width="58" height="44" rx="3" fill="#cfe2f7" fill-opacity="0.85" stroke="#555" stroke-width="0.8"><title>sacrifice: SACRIFICE (tap: offer; hold 380 ms: PRAY) · 58×44 dp · thumb L (spec) · key</title></rect>
<text x="179" y="681.1818181818181" font-size="9.09" fill="#1c1c1c" text-anchor="middle">SACRIFICE</text>
<text x="179" y="697" font-size="7" fill="#555" text-anchor="middle">58×44</text>
<rect x="692" y="948" width="58" height="58" rx="3" fill="#fbe1c9" fill-opacity="0.85" stroke="#555" stroke-width="0.8"><title>apply: APPLY (hub) · 58×58 dp · thumb R (spec) · hub</title></rect>
<text x="721" y="980.85" font-size="11" fill="#1c1c1c" text-anchor="middle">APPLY</text>
<text x="721" y="1003" font-size="7" fill="#555" text-anchor="middle">58×58</text>
<rect x="626" y="948" width="58" height="58" rx="3" fill="#fbe1c9" fill-opacity="0.85" stroke="#555" stroke-width="0.8"><title>search: SEARCH s×n (hold: count layer; SEARCH lamp on the cap) · 58×58 dp · thumb R (spec) · strip</title></rect>
<text x="655" y="980.85" font-size="11" fill="#1c1c1c" text-anchor="middle">SEARCH</text>
<text x="655" y="1003" font-size="7" fill="#555" text-anchor="middle">58×58</text>
<rect x="560" y="948" width="58" height="58" rx="3" fill="#fbe1c9" fill-opacity="0.85" stroke="#555" stroke-width="0.8"><title>inventory: INVENTORY (hub) · 58×58 dp · thumb R (spec) · hub</title></rect>
<text x="589" y="980.1818181818181" font-size="9.09" fill="#1c1c1c" text-anchor="middle">INVENTORY</text>
<text x="589" y="1003" font-size="7" fill="#555" text-anchor="middle">58×58</text>
<rect x="692" y="882" width="58" height="58" rx="3" fill="#fbe1c9" fill-opacity="0.85" stroke="#555" stroke-width="0.8"><title>eat: EAT/QUAFF/READ (hub) · 58×58 dp · thumb R (spec) · hub</title></rect>
<text x="721" y="914.85" font-size="11" fill="#1c1c1c" text-anchor="middle">EAT</text>
<text x="721" y="937" font-size="7" fill="#555" text-anchor="middle">58×58</text>
<rect x="626" y="882" width="58" height="58" rx="3" fill="#fbe1c9" fill-opacity="0.85" stroke="#555" stroke-width="0.8"><title>context: CONTEXT (tap: this turn's action; several: the HERE layer, sticky; hold: counts) · 58×58 dp · thumb R (spec) · strip</title></rect>
<text x="655" y="914.85" font-size="11" fill="#1c1c1c" text-anchor="middle">CONTEXT</text>
<text x="655" y="937" font-size="7" fill="#555" text-anchor="middle">58×58</text>
<rect x="560" y="882" width="58" height="58" rx="3" fill="#fbe1c9" fill-opacity="0.85" stroke="#555" stroke-width="0.8"><title>combat: COMBAT (hub; ARMED lamp on the cap) · 58×58 dp · thumb R (spec) · hub</title></rect>
<text x="589" y="914.85" font-size="11" fill="#1c1c1c" text-anchor="middle">COMBAT</text>
<text x="589" y="937" font-size="7" fill="#555" text-anchor="middle">58×58</text>
<rect x="692" y="816" width="58" height="58" rx="3" fill="#fbe1c9" fill-opacity="0.85" stroke="#555" stroke-width="0.8"><title>look: LOOK : (hold: farlook) · 58×58 dp · thumb R (spec) · strip</title></rect>
<text x="721" y="848.85" font-size="11" fill="#1c1c1c" text-anchor="middle">LOOK</text>
<text x="721" y="871" font-size="7" fill="#555" text-anchor="middle">58×58</text>
<rect x="626" y="816" width="58" height="58" rx="3" fill="#fbe1c9" fill-opacity="0.85" stroke="#555" stroke-width="0.8"><title>flick: FLICK (tap: macro; flick ↑ Kick, ↗ second macro) · 58×58 dp · thumb R (spec) · flick</title></rect>
<text x="655" y="848.85" font-size="11" fill="#1c1c1c" text-anchor="middle">FLICK</text>
<text x="655" y="871" font-size="7" fill="#555" text-anchor="middle">58×58</text>
<rect x="560" y="816" width="58" height="58" rx="3" fill="#fbe1c9" fill-opacity="0.85" stroke="#555" stroke-width="0.8"><title>pin2: PIN 2 (Fire by default) · 58×58 dp · thumb R (spec) · key</title></rect>
<text x="589" y="848.85" font-size="11" fill="#1c1c1c" text-anchor="middle">pin 2</text>
<text x="589" y="871" font-size="7" fill="#555" text-anchor="middle">58×58</text>
<rect x="692" y="760" width="58" height="48" rx="3" fill="#fbe1c9" fill-opacity="0.85" stroke="#555" stroke-width="0.8"><title>eq_swap: Swap x · 58×48 dp · thumb R (spec) · key</title></rect>
<text x="721" y="787.85" font-size="11" fill="#1c1c1c" text-anchor="middle">Swap</text>
<text x="721" y="805" font-size="7" fill="#555" text-anchor="middle">58×48</text>
<rect x="626" y="760" width="58" height="48" rx="3" fill="#fbe1c9" fill-opacity="0.85" stroke="#555" stroke-width="0.8"><title>eq_remove: Remove R (asks: paranoid_confirmation:+Remove) · 58×48 dp · thumb R (spec) · key</title></rect>
<text x="655" y="787.85" font-size="11" fill="#1c1c1c" text-anchor="middle">Remove</text>
<text x="655" y="805" font-size="7" fill="#555" text-anchor="middle">58×48</text>
<rect x="560" y="760" width="58" height="48" rx="3" fill="#fbe1c9" fill-opacity="0.85" stroke="#555" stroke-width="0.8"><title>eq_takeoff: Take off T (asks: paranoid_confirmation:+Remove) · 58×48 dp · thumb R (spec) · key</title></rect>
<text x="589" y="787.5795454545455" font-size="10.23" fill="#1c1c1c" text-anchor="middle">Take off</text>
<text x="589" y="805" font-size="7" fill="#555" text-anchor="middle">58×48</text>
<rect x="692" y="706" width="58" height="48" rx="3" fill="#fbe1c9" fill-opacity="0.85" stroke="#555" stroke-width="0.8"><title>eq_wield: Wield w · 58×48 dp · thumb R (spec) · key</title></rect>
<text x="721" y="733.85" font-size="11" fill="#1c1c1c" text-anchor="middle">Wield</text>
<text x="721" y="751" font-size="7" fill="#555" text-anchor="middle">58×48</text>
<rect x="626" y="706" width="58" height="48" rx="3" fill="#fbe1c9" fill-opacity="0.85" stroke="#555" stroke-width="0.8"><title>eq_puton: Put on P · 58×48 dp · thumb R (spec) · key</title></rect>
<text x="655" y="733.85" font-size="11" fill="#1c1c1c" text-anchor="middle">Put on</text>
<text x="655" y="751" font-size="7" fill="#555" text-anchor="middle">58×48</text>
<rect x="560" y="706" width="58" height="48" rx="3" fill="#fbe1c9" fill-opacity="0.85" stroke="#555" stroke-width="0.8"><title>eq_wear: Wear W · 58×48 dp · thumb R (spec) · key</title></rect>
<text x="589" y="733.85" font-size="11" fill="#1c1c1c" text-anchor="middle">Wear</text>
<text x="589" y="751" font-size="7" fill="#555" text-anchor="middle">58×48</text>
<rect x="692" y="656" width="58" height="44" rx="3" fill="#fbe1c9" fill-opacity="0.85" stroke="#555" stroke-width="0.8"><title>m3: M3 macro · 58×44 dp · thumb R (spec) · key</title></rect>
<text x="721" y="681.85" font-size="11" fill="#1c1c1c" text-anchor="middle">M3</text>
<text x="721" y="697" font-size="7" fill="#555" text-anchor="middle">58×44</text>
<rect x="626" y="656" width="58" height="44" rx="3" fill="#fbe1c9" fill-opacity="0.85" stroke="#555" stroke-width="0.8"><title>keys: KEYS (soft keyboard) · 58×44 dp · thumb R (spec) · chrome-key</title></rect>
<text x="655" y="681.85" font-size="11" fill="#1c1c1c" text-anchor="middle">KEYS</text>
<text x="655" y="697" font-size="7" fill="#555" text-anchor="middle">58×44</text>
<rect x="560" y="656" width="58" height="44" rx="3" fill="#fbe1c9" fill-opacity="0.85" stroke="#555" stroke-width="0.8"><title>m2: M2 macro · 58×44 dp · thumb R (spec) · key</title></rect>
<text x="589" y="681.85" font-size="11" fill="#1c1c1c" text-anchor="middle">M2</text>
<text x="589" y="697" font-size="7" fill="#555" text-anchor="middle">58×44</text>
<rect x="607" y="357.07" width="44" height="44" rx="4" fill="#8e44ad" fill-opacity="0.07" stroke="#8e44ad" stroke-dasharray="4 3"><title>pop-up flick legend ↑ (−85°, Kick): feedback while FLICK strokes; a target while FLICK is held or while assigning (owner flick)</title></rect>
<rect x="659" y="357.07" width="44" height="44" rx="4" fill="#8e44ad" fill-opacity="0.07" stroke="#8e44ad" stroke-dasharray="4 3"><title>pop-up flick legend ↗ (−40°, second macro): feedback while FLICK strokes; a target while FLICK is held or while assigning (owner flick)</title></rect>
<rect x="8" y="377.07" width="120" height="24" rx="4" fill="#8e44ad" fill-opacity="0.07" stroke="#8e44ad" stroke-dasharray="4 3"><title>pop-up layer name pill (drawn while a layer is up; inside the map, never over keys) (owner pad_centre)</title></rect>
<rect x="174" y="146.57" width="420" height="254.5" rx="4" fill="#8e44ad" fill-opacity="0.07" stroke="#8e44ad" stroke-dasharray="4 3"><title>pop-up drawer: WORLD, GAME, MENU and every layer's ALL open here (3 columns on every screen) (owner world)</title></rect>
</svg>